<svg id="Layer_1" data-name="Layer 1" xmlns="http://www.w3.org/2000/svg" viewBox="0 0 226.77 226.77"><title>Artboard 1</title><path d="M146.64,132.22c-5.27-13.14-18-19.37-21.79-21.25-17.11-8.4-42.36-9.26-57,2.83-4.53,3.74-7.72,8.46-16.67,13.67a67.17,67.17,0,0,1-16.5,6.83,25.81,25.81,0,0,0,13,2.81,24.53,24.53,0,0,0,5.25-.87,26.69,26.69,0,0,1-18.4,11.9,36.56,36.56,0,0,0,18.51,3c4.66-.51,7.88-1.8,14.26-4.54a117.82,117.82,0,0,0,19.27-10.5l5.12-3.4a39.76,39.76,0,0,1-1.21,11.46,17.17,17.17,0,0,1-1.21,3.71A12,12,0,0,1,87,151.05q3-.52,6.16-1.24a114.6,114.6,0,0,0,22-7.51,14.2,14.2,0,0,1-3,11c1.31-.06,2.67-.16,4.06-.31a62.78,62.78,0,0,0,19.38-5.44A15.88,15.88,0,0,1,136,156a15.67,15.67,0,0,1-2.5,5.58c2.49-.27,8.28-1.26,12.24-6a16.24,16.24,0,0,0,1.68-2.48C151.68,145.18,147.18,133.58,146.64,132.22Z" style="fill:#fff;stroke:#fff;stroke-linecap:square;stroke-miterlimit:10;stroke-width:5px"/><path d="M113.68,93.72l7.88,1.63a83.65,83.65,0,0,0,14-21.37c12.8-28.39,5.64-55.82,2.67-65.33a152.91,152.91,0,0,0-22.12,55.58A150,150,0,0,0,113.68,93.72Z" style="fill:none;stroke:#fff;stroke-linecap:square;stroke-miterlimit:10;stroke-width:5px"/><path d="M138.93,103.89c1.81,1.24,3.73,2.68,5.71,4.33,1.79,1.5,3.4,3,4.83,4.42a142,142,0,0,0,25.79-26.75A143.69,143.69,0,0,0,199.6,32.55a173.69,173.69,0,0,0-60.67,71.33Z" style="fill:none;stroke:#fff;stroke-linecap:square;stroke-miterlimit:10;stroke-width:5px"/><path d="M53.27,198a18.2,18.2,0,0,1-11.5-2.67,17.84,17.84,0,0,1-6-6.42" style="fill:none;stroke:#fff;stroke-linecap:round;stroke-miterlimit:10;stroke-width:5px"/><path d="M41.65,196.26a32,32,0,0,0-2.08,11.21A32.6,32.6,0,0,0,48.82,214c9.87,4.6,19.4,2.74,24.75,1.69,15.43-3,37.64-17.94,58.88-43" style="fill:none;stroke:#fff;stroke-linecap:round;stroke-miterlimit:10;stroke-width:5px"/><path d="M28.43,198.18l-2.6-3.71a54.57,54.57,0,0,1,2.35-17.17,61.8,61.8,0,0,1,6.51-13.83c1-1.73,2-3.14,2.63-4.12" style="fill:none;stroke:#fff;stroke-linecap:round;stroke-miterlimit:10;stroke-width:5px"/></svg>